<svg width="166" height="166" viewBox="0 0 166 166" fill="none" xmlns="http://www.w3.org/2000/svg">
<g clip-path="url(#clip0_228_1539)">
<path fill-rule="evenodd" clip-rule="evenodd" d="M4.86816 82.9997C4.86816 39.8489 39.8489 4.86816 82.9997 4.86816C126.151 4.86816 161.131 39.8489 161.131 82.9997C161.131 126.151 126.151 161.131 82.9997 161.131C39.8489 161.131 4.86816 126.151 4.86816 82.9997ZM82.9997 3.86816C39.2966 3.86816 3.86816 39.2966 3.86816 82.9997C3.86816 126.703 39.2966 162.131 82.9997 162.131C126.703 162.131 162.131 126.703 162.131 82.9997C162.131 39.2966 126.703 3.86816 82.9997 3.86816Z" fill="#FF8E18"/>
<path fill-rule="evenodd" clip-rule="evenodd" d="M83 166C128.84 166 166 128.84 166 83C166 37.1604 128.84 0 83 0C37.1604 0 0 37.1604 0 83C0 128.84 37.1604 166 83 166ZM123.73 58.5343C125.498 56.4129 125.211 53.2601 123.09 51.4922C120.968 49.7244 117.816 50.011 116.048 52.1324L73.4418 103.26L49.6467 79.4645C47.694 77.5118 44.5282 77.5118 42.5756 79.4645C40.623 81.4171 40.623 84.5829 42.5756 86.5355L68.6936 112.654L68.7658 112.726C69.0459 113.007 69.5548 113.519 70.0832 113.918C70.7756 114.442 72.1166 115.264 73.9825 115.179C75.8484 115.094 77.1094 114.155 77.7516 113.57C78.2416 113.125 78.7022 112.569 78.9556 112.264L79.0209 112.185L123.73 58.5343Z" fill="#FF8E18"/>
</g>
<defs>
<clipPath id="clip0_228_1539">
<rect width="166" height="166" fill="white"/>
</clipPath>
</defs>
</svg>
