<svg width="35" height="35" viewBox="0 0 35 35" fill="none" xmlns="http://www.w3.org/2000/svg">
<path d="M7.29199 18.6079C7.29199 16.6279 7.29199 15.6378 7.69225 14.7676C8.0925 13.8973 8.84419 13.253 10.3476 11.9644L11.8059 10.7144C14.5232 8.38528 15.8819 7.2207 17.5003 7.2207C19.1187 7.2207 20.4774 8.38528 23.1947 10.7144L24.6531 11.9644C26.1565 13.253 26.9081 13.8973 27.3084 14.7676C27.7087 15.6378 27.7087 16.6279 27.7087 18.6079V24.7918C27.7087 27.5417 27.7087 28.9166 26.8544 29.7709C26.0001 30.6252 24.6252 30.6252 21.8753 30.6252H13.1253C10.3755 30.6252 9.00054 30.6252 8.14626 29.7709C7.29199 28.9166 7.29199 27.5417 7.29199 24.7918V18.6079Z" stroke="#FAFAFA" stroke-width="2"/>
<path d="M21.1462 30.625V22.875C21.1462 22.3227 20.6984 21.875 20.1462 21.875H14.8545C14.3022 21.875 13.8545 22.3227 13.8545 22.875V30.625" stroke="#FAFAFA" stroke-width="2" stroke-linecap="round" stroke-linejoin="round"/>
</svg>
