<svg width="35" height="35" viewBox="0 0 35 35" fill="none" xmlns="http://www.w3.org/2000/svg">
<path d="M7.2915 18.6079C7.2915 16.6279 7.2915 15.6378 7.69176 14.7676C8.09202 13.8973 8.8437 13.253 10.3471 11.9644L11.8054 10.7144C14.5228 8.38528 15.8814 7.2207 17.4998 7.2207C19.1183 7.2207 20.4769 8.38528 23.1943 10.7144L24.6526 11.9644C26.156 13.253 26.9077 13.8973 27.3079 14.7676C27.7082 15.6378 27.7082 16.6279 27.7082 18.6079V24.7918C27.7082 27.5417 27.7082 28.9166 26.8539 29.7709C25.9996 30.6252 24.6247 30.6252 21.8748 30.6252H13.1248C10.375 30.6252 9.00005 30.6252 8.14578 29.7709C7.2915 28.9166 7.2915 27.5417 7.2915 24.7918V18.6079Z" stroke="#FF8E18" stroke-width="2"/>
<path d="M21.1457 30.625V22.875C21.1457 22.3227 20.698 21.875 20.1457 21.875H14.854C14.3017 21.875 13.854 22.3227 13.854 22.875V30.625" stroke="#FF8E18" stroke-width="2" stroke-linecap="round" stroke-linejoin="round"/>
</svg>
